<svg xmlns="http://www.w3.org/2000/svg" viewBox="0 0 231.43 201.67">
<defs><style>
.loading {
    fill: none;
    fill-rule: evenodd;
    stroke: #dfd2d2;
    stroke-linecap: round;
    stroke-width:20px;
    animation: loading 2s ease-out infinite alternate;    
}
@keyframes loading {
    0% {
        opacity:0;
        stroke-dasharray: 0, 600;
    }
    100% {
        opacity:1;
        stroke-dasharray: 600, 600;
    }
}
</style></defs>
<path class="loading" d="M65.58,90C76.69,74.62,88.16,58.3,90.46,39.44c.75-6.22.38-12.89-3-18.18s-10.35-8.6-16.14-6.19c-5.19,2.16-7.88,8-8.85,13.53-1.51,8.37.2,18,6.89,23.28,4,3.17,9.33,4.31,14.45,4.75a66.18,66.18,0,0,0,31.6-5.11C131.91,44.44,144.7,31.05,157,18L143.07,48c-7,14.94-13.92,29.9-19.88,45.26-6.13,15.77-11.15,31.9-18,47.3A217.86,217.86,0,0,1,74.08,190.7c-5.83,7.05-12.26,13.86-20.33,18.19s-18.05,5.9-26.43,2.21c-7.21-3.17-12.34-9.71-16.48-16.42" transform="translate(-10.84 -14.27)"/><path class="loading" d="M105.52,139.84A185.06,185.06,0,0,0,229.13,63.94C234,57,238.42,49.65,241,41.57c1-3.16,1.7-6.53,1.07-9.78s-2.86-6.38-6.06-7.23a10.81,10.81,0,0,0-7,.95c-9.83,4.28-18.85,13-23.86,22.49-15.18,23.65-24.5,49.52-36.07,74.71s-19.57,52.83-17,80.43c.36,4,1.18,8.32,4.38,10.7a11.82,11.82,0,0,0,6.13,2c6.46.56,12.87-1.34,19-3.33a512.71,512.71,0,0,0,57-22.29" transform="translate(-10.84 -14.27)"/></svg>
