<svg id="eye" xmlns="http://www.w3.org/2000/svg" viewBox="0 0 50 25">
  <defs>
    <style>
      .cls-3 {
        fill: none;
      }
      .cls-1, .cls-2 {
        fill: #6f8e8e;
      }
      .cls-4 {
        fill:none;
        stroke: #6f8e8e;
        stroke-miterlimit: 10;
        stroke-width: 0.3px;
      }
      .cls-1, .cls-2 {
        stroke: white;
        stroke-miterlimit: 10;
        stroke-width: 0.4px;
      }
    </style>
  </defs>
  <title>eyelogo</title>
  <path class="cls-1" d="M13.6,10.37c6.17-5.26,16.44-3.7,23-.57.43.21.81-.44.38-.65-7-3.36-17.38-4.88-23.91.68-.37.31.16.84.53.53Z"/>
  <path class="cls-1" d="M13.95,15.25c-3.46-.94,4.76-4.14,5.38-4.33a13.12,13.12,0,0,1,9.64.66c3.22,1.43,5.46,3.62,9.12,3.6a.38.38,0,0,0,0-.75c-4.27,0-6.69-3.11-10.42-4.29A14,14,0,0,0,19.84,10c-2.16.57-7.75,2.52-7.91,5.18a.38.38,0,0,0,.28.36l1.55.42a.38.38,0,0,0,.2-.72Z"/>
  <path class="cls-1" d="M16.12,16.72a18.91,18.91,0,0,0,16.73-.53c.43-.22,0-.87-.38-.65a18.09,18.09,0,0,1-16,.53c-.44-.19-.82.45-.38.65Z"/>
  <path class="cls-4" d="M27,10.44a5,5,0,0,1,1.9,3.92,7.6,7.6,0,0,1-1,3c-1,1-7,1-8,0a7.6,7.6,0,0,1-1-3,5,5,0,0,1,2.31-4.22"/>
  <line class="cls-4" x1="11.91" y1="18.37" x2="36.91" y2="8.37"/>
  <circle class="cls-2" cx="24.41" cy="13.87" r="1.5"/>
  <rect class="cls-3" width="50" height="25"/>
</svg>
